<svg xmlns="http://www.w3.org/2000/svg" width="1600" height="900" viewBox="0 0 1600 900"><rect width="1600" height="900" fill="#f4f4f4"/><rect x="260" y="130" width="1080" height="32" fill="#151515"/><g fill="#101010"><rect x="390" y="155" width="26" height="72" rx="13"/><rect x="610" y="155" width="26" height="72" rx="13"/><rect x="830" y="155" width="26" height="72" rx="13"/><rect x="1050" y="155" width="26" height="72" rx="13"/></g><g fill="#fff" opacity=".56"><path d="M403 220 L310 645 H520Z"/><path d="M623 220 L530 645 H740Z"/><path d="M843 220 L750 645 H960Z"/><path d="M1063 220 L970 645 H1180Z"/></g><rect x="330" y="450" width="260" height="170" fill="#fff" stroke="#111" stroke-opacity=".13"/><rect x="650" y="425" width="260" height="195" fill="#fff" stroke="#111" stroke-opacity=".13"/><rect x="970" y="455" width="260" height="165" fill="#fff" stroke="#111" stroke-opacity=".13"/></svg>