<svg xmlns="http://www.w3.org/2000/svg" viewBox="0 0 1200 900" role="img" aria-label="minimal gallery lighting scene">
<defs>
<linearGradient id="wall" x1="0" y1="0" x2="0" y2="1"><stop offset="0" stop-color="#fbfaf7"/><stop offset="1" stop-color="#ece9e1"/></linearGradient>
<radialGradient id="pool" cx="50%" cy="50%" r="50%"><stop offset="0" stop-color="#fff"/><stop offset=".35" stop-color="#f6e7b7" stop-opacity=".55"/><stop offset="1" stop-color="#ffffff" stop-opacity="0"/></radialGradient>
<linearGradient id="beam" x1="0" y1="0" x2="0" y2="1"><stop offset="0" stop-color="#fff9df" stop-opacity=".8"/><stop offset="1" stop-color="#fff" stop-opacity="0"/></linearGradient>
</defs>
<rect width="1200" height="900" fill="#f5f4f0"/>
<rect y="0" width="1200" height="520" fill="url(#wall)"/>
<rect y="520" width="1200" height="380" fill="#f8f7f3"/>
<line x1="0" y1="520" x2="1200" y2="520" stroke="#dedbd4" stroke-width="2"/>
<g opacity=".9">
<rect x="120" y="92" width="120" height="54" rx="27" fill="#111"/><ellipse cx="180" cy="146" rx="46" ry="12" fill="#fff8d8"/><polygon points="146,154 214,154 330,660 30,660" fill="url(#beam)" opacity=".7"/>
<rect x="440" y="92" width="120" height="54" rx="27" fill="#111"/><ellipse cx="500" cy="146" rx="46" ry="12" fill="#fff8d8"/><polygon points="466,154 534,154 660,680 340,680" fill="url(#beam)" opacity=".72"/>
<rect x="760" y="92" width="120" height="54" rx="27" fill="#111"/><ellipse cx="820" cy="146" rx="46" ry="12" fill="#fff8d8"/><polygon points="786,154 854,154 990,660 650,660" fill="url(#beam)" opacity=".66"/>
</g>
<ellipse cx="180" cy="720" rx="180" ry="65" fill="url(#pool)"/><ellipse cx="500" cy="730" rx="200" ry="70" fill="url(#pool)"/><ellipse cx="820" cy="715" rx="190" ry="68" fill="url(#pool)"/>
<rect x="930" y="250" width="150" height="230" fill="#fff" stroke="#d9d5cc" stroke-width="3"/><rect x="960" y="280" width="90" height="145" fill="#f0eee7"/>
<rect x="0" y="0" width="1200" height="900" fill="none" stroke="#dedbd4" stroke-width="2"/>
</svg>