<svg xmlns="http://www.w3.org/2000/svg" width="1600" height="900" viewBox="0 0 1600 900"><rect width="1600" height="900" fill="#f4f4f4"/><rect x="150" y="200" width="1240" height="560" rx="8" fill="#fff" stroke="#111" stroke-opacity=".14" stroke-width="2"/><rect x="230" y="280" width="430" height="310" fill="#fff" stroke="#111" stroke-opacity=".12"/><path d="M280 520 C370 390 455 470 505 330 C565 450 610 420 635 520" fill="none" stroke="#111" stroke-width="5" opacity=".75"/><rect x="740" y="285" width="520" height="34" fill="#151515"/><rect x="740" y="365" width="420" height="18" fill="#111" opacity=".28"/><rect x="740" y="415" width="500" height="18" fill="#111" opacity=".28"/><rect x="740" y="465" width="350" height="18" fill="#111" opacity=".28"/><g fill="none" stroke="#111" stroke-width="2" opacity=".45"><circle cx="1140" cy="620" r="75"/><path d="M1065 620 h150 M1140 545 v150"/></g><rect x="1010" y="120" width="130" height="72" fill="#111"/><circle cx="1050" cy="156" r="13" fill="#fff"/><circle cx="1100" cy="156" r="13" fill="#fff"/></svg>